<mxfile host="app.diagrams.net" modified="2021-03-16T09:08:29.202Z" agent="5.0 (Windows NT 10.0; Win64; x64) AppleWebKit/537.36 (KHTML, like Gecko) Chrome/89.0.4389.82 Safari/537.36" etag="06q71iLzfUfS82HVkRbu" version="14.4.8" type="github">
  <diagram id="WRzdULnW6Vfhu5xPQpba" name="Page-1">
    <mxGraphModel dx="1808" dy="486" grid="1" gridSize="10" guides="1" tooltips="1" connect="1" arrows="1" fold="1" page="1" pageScale="1" pageWidth="827" pageHeight="1169" math="0" shadow="0">
      <root>
        <mxCell id="0" />
        <mxCell id="1" parent="0" />
        <mxCell id="khOET2NIEh_R82iqiIjk-8" value="" style="shape=parallelogram;perimeter=parallelogramPerimeter;whiteSpace=wrap;html=1;fixedSize=1;size=56.51999999999998;rotation=344;fillColor=#FFFFFF;strokeColor=#0B84B8;" parent="1" vertex="1">
          <mxGeometry x="340.78" y="197.92" width="196.52" height="90" as="geometry" />
        </mxCell>
        <mxCell id="khOET2NIEh_R82iqiIjk-1" value="" style="shape=parallelogram;perimeter=parallelogramPerimeter;whiteSpace=wrap;html=1;fixedSize=1;size=80;rotation=344;strokeColor=#0B84B8;fillColor=#FFFFFF;" parent="1" vertex="1">
          <mxGeometry x="50" y="95.87" width="230" height="120" as="geometry" />
        </mxCell>
        <mxCell id="khOET2NIEh_R82iqiIjk-3" value="" style="shape=parallelogram;perimeter=parallelogramPerimeter;whiteSpace=wrap;html=1;fixedSize=1;size=35.569999999999936;rotation=344;fillColor=#FFFFFF;strokeColor=#0B84B8;" parent="1" vertex="1">
          <mxGeometry x="119.22" y="130.11" width="99.99" height="46.12" as="geometry" />
        </mxCell>
        <mxCell id="khOET2NIEh_R82iqiIjk-5" value="" style="endArrow=classic;html=1;" parent="1" edge="1">
          <mxGeometry width="50" height="50" relative="1" as="geometry">
            <mxPoint x="171" y="157" as="sourcePoint" />
            <mxPoint x="-9" y="210" as="targetPoint" />
          </mxGeometry>
        </mxCell>
        <mxCell id="khOET2NIEh_R82iqiIjk-6" value="" style="endArrow=classic;html=1;" parent="1" edge="1">
          <mxGeometry width="50" height="50" relative="1" as="geometry">
            <mxPoint x="171" y="157" as="sourcePoint" />
            <mxPoint x="171" y="290" as="targetPoint" />
          </mxGeometry>
        </mxCell>
        <mxCell id="khOET2NIEh_R82iqiIjk-9" value="" style="ellipse;whiteSpace=wrap;html=1;strokeColor=#00F7FF;fillColor=#FFFFFF;" parent="1" vertex="1">
          <mxGeometry x="436" y="241.92" width="10" height="10" as="geometry" />
        </mxCell>
        <mxCell id="khOET2NIEh_R82iqiIjk-11" value="" style="endArrow=none;dashed=1;html=1;entryX=0;entryY=0.5;entryDx=0;entryDy=0;" parent="1" target="khOET2NIEh_R82iqiIjk-9" edge="1">
          <mxGeometry width="50" height="50" relative="1" as="geometry">
            <mxPoint x="171" y="158" as="sourcePoint" />
            <mxPoint x="431" y="198" as="targetPoint" />
          </mxGeometry>
        </mxCell>
        <mxCell id="khOET2NIEh_R82iqiIjk-12" value="" style="endArrow=classic;html=1;exitX=1;exitY=1;exitDx=0;exitDy=0;" parent="1" source="khOET2NIEh_R82iqiIjk-9" edge="1">
          <mxGeometry width="50" height="50" relative="1" as="geometry">
            <mxPoint x="380" y="250" as="sourcePoint" />
            <mxPoint x="600" y="310" as="targetPoint" />
          </mxGeometry>
        </mxCell>
        <mxCell id="khOET2NIEh_R82iqiIjk-13" value="" style="endArrow=classic;html=1;" parent="1" edge="1">
          <mxGeometry width="50" height="50" relative="1" as="geometry">
            <mxPoint x="441.3099999999998" y="247.92000000000002" as="sourcePoint" />
            <mxPoint x="330" y="282" as="targetPoint" />
          </mxGeometry>
        </mxCell>
        <mxCell id="khOET2NIEh_R82iqiIjk-14" value="" style="endArrow=classic;html=1;" parent="1" edge="1">
          <mxGeometry width="50" height="50" relative="1" as="geometry">
            <mxPoint x="441.3099999999998" y="247.92000000000002" as="sourcePoint" />
            <mxPoint x="441" y="342" as="targetPoint" />
          </mxGeometry>
        </mxCell>
        <mxCell id="khOET2NIEh_R82iqiIjk-15" value="" style="endArrow=none;html=1;exitX=0.173;exitY=0.676;exitDx=0;exitDy=0;exitPerimeter=0;fillColor=#a20025;strokeColor=#FF0000;" parent="1" edge="1">
          <mxGeometry width="50" height="50" relative="1" as="geometry">
            <mxPoint x="148.022267362212" y="171.9851167383972" as="sourcePoint" />
            <mxPoint x="550" y="276.7857493534601" as="targetPoint" />
          </mxGeometry>
        </mxCell>
        <mxCell id="khOET2NIEh_R82iqiIjk-17" value="&lt;font style=&quot;font-size: 17px&quot;&gt;p&#39;&lt;/font&gt;" style="text;html=1;strokeColor=none;fillColor=none;align=center;verticalAlign=middle;whiteSpace=wrap;rounded=0;" parent="1" vertex="1">
          <mxGeometry x="134.19" y="178" width="20" height="22" as="geometry" />
        </mxCell>
        <mxCell id="khOET2NIEh_R82iqiIjk-18" value="像素平面" style="text;html=1;strokeColor=none;fillColor=none;align=center;verticalAlign=middle;whiteSpace=wrap;rounded=0;rotation=-15;" parent="1" vertex="1">
          <mxGeometry x="152" y="115" width="60" as="geometry" />
        </mxCell>
        <mxCell id="khOET2NIEh_R82iqiIjk-19" value="物理成像平面" style="text;html=1;strokeColor=none;fillColor=none;align=center;verticalAlign=middle;whiteSpace=wrap;rounded=0;rotation=-15;" parent="1" vertex="1">
          <mxGeometry x="146.69" y="76.67" width="78" as="geometry" />
        </mxCell>
        <mxCell id="khOET2NIEh_R82iqiIjk-20" value="" style="ellipse;whiteSpace=wrap;html=1;fillColor=#FF0000;strokeColor=#FF0000;" parent="1" vertex="1">
          <mxGeometry x="550" y="274.42" width="5" height="5" as="geometry" />
        </mxCell>
        <mxCell id="khOET2NIEh_R82iqiIjk-21" value="" style="ellipse;whiteSpace=wrap;html=1;fillColor=#FF0000;strokeColor=#FF0000;" parent="1" vertex="1">
          <mxGeometry x="142.69" y="169.23000000000002" width="5" height="5" as="geometry" />
        </mxCell>
        <mxCell id="khOET2NIEh_R82iqiIjk-22" value="&lt;font style=&quot;font-size: 13px&quot;&gt;&lt;b&gt;O&#39;&lt;/b&gt;&lt;/font&gt;" style="text;html=1;strokeColor=none;fillColor=none;align=center;verticalAlign=middle;whiteSpace=wrap;rounded=0;" parent="1" vertex="1">
          <mxGeometry x="162" y="143.17000000000002" width="40" height="20" as="geometry" />
        </mxCell>
        <mxCell id="khOET2NIEh_R82iqiIjk-23" value="&lt;font style=&quot;font-size: 13px&quot;&gt;光心&lt;b&gt;O&lt;/b&gt;&lt;/font&gt;" style="text;html=1;strokeColor=none;fillColor=none;align=center;verticalAlign=middle;whiteSpace=wrap;rounded=0;" parent="1" vertex="1">
          <mxGeometry x="446" y="228.92000000000002" width="40" height="20" as="geometry" />
        </mxCell>
        <mxCell id="khOET2NIEh_R82iqiIjk-24" value="&lt;font style=&quot;font-size: 13px&quot;&gt;&lt;b&gt;x&#39;&lt;/b&gt;&lt;/font&gt;" style="text;html=1;strokeColor=none;fillColor=none;align=center;verticalAlign=middle;whiteSpace=wrap;rounded=0;" parent="1" vertex="1">
          <mxGeometry x="-30" y="215.87" width="40" height="20" as="geometry" />
        </mxCell>
        <mxCell id="khOET2NIEh_R82iqiIjk-25" value="&lt;font style=&quot;font-size: 13px&quot;&gt;&lt;b&gt;y&#39;&lt;/b&gt;&lt;/font&gt;" style="text;html=1;strokeColor=none;fillColor=none;align=center;verticalAlign=middle;whiteSpace=wrap;rounded=0;" parent="1" vertex="1">
          <mxGeometry x="162" y="279.42" width="40" height="20" as="geometry" />
        </mxCell>
        <mxCell id="khOET2NIEh_R82iqiIjk-26" value="&lt;font style=&quot;font-size: 13px&quot;&gt;&lt;b&gt;x&lt;/b&gt;&lt;/font&gt;" style="text;html=1;strokeColor=none;fillColor=none;align=center;verticalAlign=middle;whiteSpace=wrap;rounded=0;" parent="1" vertex="1">
          <mxGeometry x="300.78" y="279.42" width="40" height="20" as="geometry" />
        </mxCell>
        <mxCell id="khOET2NIEh_R82iqiIjk-27" value="&lt;span style=&quot;font-size: 13px&quot;&gt;&lt;b&gt;y&lt;/b&gt;&lt;/span&gt;" style="text;html=1;strokeColor=none;fillColor=none;align=center;verticalAlign=middle;whiteSpace=wrap;rounded=0;" parent="1" vertex="1">
          <mxGeometry x="436" y="330" width="40" height="20" as="geometry" />
        </mxCell>
        <mxCell id="khOET2NIEh_R82iqiIjk-28" value="焦距f" style="text;html=1;strokeColor=none;fillColor=none;align=center;verticalAlign=middle;whiteSpace=wrap;rounded=0;rotation=15;" parent="1" vertex="1">
          <mxGeometry x="284" y="178" width="40" height="20" as="geometry" />
        </mxCell>
        <mxCell id="WB7BnwC0B3xb2Pj1MGOp-1" value="&lt;font style=&quot;font-size: 17px&quot;&gt;p&lt;/font&gt;" style="text;html=1;strokeColor=none;fillColor=none;align=center;verticalAlign=middle;whiteSpace=wrap;rounded=0;" vertex="1" parent="1">
          <mxGeometry x="560" y="274.42" width="20" height="22" as="geometry" />
        </mxCell>
      </root>
    </mxGraphModel>
  </diagram>
</mxfile>
